HIERARCHY
ROOT Hips
{
	OFFSET -3.958830 18.904000 13.208200
	CHANNELS 6 Xposition Yposition Zposition Zrotation Yrotation Xrotation 
	JOINT LHipJoint
	{
		OFFSET 0.000000 0.000000 0.000000
		CHANNELS 3 Zrotation Yrotation Xrotation
		JOINT LeftUpLeg
		{
			OFFSET 1.800000 -1.400000 0.085000
			CHANNELS 3 Zrotation Yrotation Xrotation
			JOINT LeftLeg
			{
				OFFSET 2.215000 -6.000000 0.000000
				CHANNELS 3 Zrotation Yrotation Xrotation
				JOINT LeftFoot
				{
					OFFSET 2.500000 -6.900000 0.000000
					CHANNELS 3 Zrotation Yrotation Xrotation
					JOINT LeftToeBase
					{
						OFFSET 0.200000 -0.500000 1.950000
						CHANNELS 3 Zrotation Yrotation Xrotation
						End Site
						{
							OFFSET 0.000000 0.000000 0.000000
						}
					}
				}
			}
		}
	}
	JOINT RHipJoint
	{
		OFFSET 0.000000 0.000000 0.000000
		CHANNELS 3 Zrotation Yrotation Xrotation
		JOINT RightUpLeg
		{
			OFFSET -1.800000 -1.400000 0.085000
			CHANNELS 3 Zrotation Yrotation Xrotation
			JOINT RightLeg
			{
				OFFSET -2.215000 -6.000000 0.000000
				CHANNELS 3 Zrotation Yrotation Xrotation
				JOINT RightFoot
				{
					OFFSET -2.500000 -6.900000 0.000000
					CHANNELS 3 Zrotation Yrotation Xrotation
					JOINT RightToeBase
					{
						OFFSET -0.200000 -0.500000 1.950000
						CHANNELS 3 Zrotation Yrotation Xrotation
						End Site
						{
							OFFSET 0.000000 0.000000 0.000000
						}
					}
				}
			}
		}
	}
	JOINT LowerBack
	{
		OFFSET 0.000000 0.000000 0.000000
		CHANNELS 3 Zrotation Yrotation Xrotation
		JOINT Spine
		{
			OFFSET -0.087000 1.940000 -0.288900
			CHANNELS 3 Zrotation Yrotation Xrotation
			JOINT Spine1
			{
				OFFSET 0.000000 1.950000 0.060000
				CHANNELS 3 Zrotation Yrotation Xrotation
				JOINT Neck
				{
					OFFSET 0.000000 0.000000 0.000000
					CHANNELS 3 Zrotation Yrotation Xrotation
					JOINT Neck1
					{
						OFFSET 0.000000 1.600000 0.340000
						CHANNELS 3 Zrotation Yrotation Xrotation
						JOINT Head
						{
							OFFSET 0.000000 1.667000 -0.240000
							CHANNELS 3 Zrotation Yrotation Xrotation
							End Site
							{
								OFFSET 0.000000 0.000000 0.000000
							}
						}
					}
				}
				JOINT LeftShoulder
				{
					OFFSET 0.000000 0.000000 0.000000
					CHANNELS 3 Zrotation Yrotation Xrotation
					JOINT LeftArm
					{
						OFFSET 2.700000 1.550000 -0.730000
						CHANNELS 3 Zrotation Yrotation Xrotation
						JOINT LeftForeArm
						{
							OFFSET 5.450000 0.000000 0.000000
							CHANNELS 3 Zrotation Yrotation Xrotation
							JOINT LeftHand
							{
								OFFSET 3.450000 0.000000 0.000000
								CHANNELS 3 Zrotation Yrotation Xrotation
								JOINT LeftHandIndex1
								{
									OFFSET 0.750000 0.000000 0.000000
									CHANNELS 3 Zrotation Yrotation Xrotation
									End Site
									{
										OFFSET 0.000000 0.000000 0.000000
									}
								}
							}
						}
					}
				}
				JOINT RightShoulder
				{
					OFFSET 0.000000 0.000000 0.000000
					CHANNELS 3 Zrotation Yrotation Xrotation
					JOINT RightArm
					{
						OFFSET -2.700000 1.550000 -0.730000
						CHANNELS 3 Zrotation Yrotation Xrotation
						JOINT RightForeArm
						{
							OFFSET -5.450000 0.000000 0.000000
							CHANNELS 3 Zrotation Yrotation Xrotation
							JOINT RightHand
							{
								OFFSET -3.450000 0.000000 0.000000
								CHANNELS 3 Zrotation Yrotation Xrotation
								JOINT RightHandIndex1
								{
									OFFSET -0.750000 0.000000 0.000000
									CHANNELS 3 Zrotation Yrotation Xrotation
									End Site
									{
										OFFSET 0.000000 0.000000 0.000000
									}
								}
							}
						}
					}
				}
			}
		}
	}
}
MOTION
Frames: 12
Frame Time: 0.016667
0.393520 16.248270 -2.497910 -2.750235 24.445761 7.668206 -15.031565 12.750282 3.421419 8.708909 -2.988123 -26.067272 -7.337094 5.109000 10.840046 -0.465741 3.588292 3.468930 -0.242690 -0.609960 -0.110290 18.295869 -11.614940 2.338788 -6.998568 0.992884 -12.445426 -2.079152 -3.190782 13.474848 0.177542 -3.276283 3.286287 -0.239250 0.671500 0.179410 -4.388191 -0.096228 -7.229728 9.898787 2.138358 5.584392 2.388471 2.908310 -3.458690 -2.676793 -6.634900 -9.393079 -11.263576 7.693028 25.621744 -0.813940 3.717020 3.922460 0.236231 5.240831 4.231891 -72.613467 3.003277 -5.698398 -29.511122 -20.685858 2.464799 -3.953357 3.094828 0.192190 0.353330 -0.378240 0.046760 4.807882 2.497892 4.043781 65.116264 4.077283 -5.566380 14.302286 17.750836 0.338624 2.486913 -1.379987 -0.382920 0.162950 0.266850 -0.033780 
0.398270 16.244670 -2.475930 -2.202551 24.403362 8.564403 -15.085436 12.841536 3.460736 8.373704 -3.123075 -26.354953 -7.551178 5.104432 10.550418 -0.434918 3.583720 3.488724 -0.240450 -0.606870 -0.144900 18.257226 -11.445617 2.269369 -7.791139 1.123905 -13.136865 -1.345503 -3.295958 13.584222 0.200176 -3.230462 3.312348 -0.242930 0.699990 0.170800 -4.230024 -0.597711 -7.147465 8.817467 1.826006 5.079086 3.377888 2.562070 -4.312681 -3.305577 -7.967163 -8.832497 -13.957881 8.920293 24.522261 -0.033130 3.319200 4.276120 1.005422 8.457800 4.112145 -72.909484 4.136926 -5.480185 -29.459195 -20.779232 2.699655 -3.926487 3.086643 0.177190 0.348890 -0.394550 0.076940 5.519983 -0.033833 3.190554 62.680744 3.419233 -5.342567 18.071021 19.649421 1.202256 2.491072 -1.404086 -0.377900 0.173690 0.259900 -0.004850 
0.402790 16.243200 -2.459550 -1.798522 24.275818 9.183271 -15.106860 12.887913 3.477392 8.058721 -3.216235 -26.417249 -7.736748 5.065021 10.195069 -0.414146 3.567868 3.504945 -0.227330 -0.588200 -0.167370 18.248730 -11.335852 2.223695 -8.393384 1.221493 -13.628165 -0.841532 -3.372964 13.604626 0.209179 -3.211059 3.322844 -0.235960 0.717410 0.174500 -4.171403 -0.895978 -7.081382 8.589675 1.487495 4.705838 3.363666 2.220680 -4.836316 -3.606011 -8.982729 -8.367425 -16.056199 10.190701 23.667968 0.353150 3.369150 4.538370 1.511707 11.084749 3.891155 -73.025997 4.899736 -5.285991 -28.609643 -20.931352 2.772343 -3.921229 3.078515 0.162430 0.350110 -0.401130 0.103280 5.669953 -2.087783 2.530771 61.668078 3.327856 -4.841732 21.327921 21.403312 2.139626 2.484260 -1.448494 -0.366320 0.174080 0.250360 0.017210 
0.407100 16.243250 -2.449480 -1.592493 24.180789 9.546721 -15.104005 12.901431 3.492839 7.861204 -3.276955 -26.491721 -7.981472 5.074491 10.023921 -0.391968 3.547272 3.508576 -0.215280 -0.558060 -0.175590 18.259383 -11.276181 2.201259 -8.737061 1.279869 -13.921624 -0.592033 -3.399594 13.535510 0.207664 -3.184735 3.329151 -0.227140 0.710700 0.168600 -4.188020 -1.037394 -7.053943 9.072513 1.177212 4.553480 2.536575 1.910098 -5.325180 -3.539783 -9.645513 -8.038697 -17.540020 11.368279 23.494882 0.514570 3.826140 4.626700 1.951590 13.226750 3.544454 -73.121978 5.222760 -4.974654 -27.105892 -21.010781 2.714308 -3.918171 3.052845 0.153140 0.340130 -0.392470 0.113470 5.020686 -3.830947 2.085809 62.315514 3.587222 -4.184211 23.664106 22.693550 2.950165 2.485906 -1.481065 -0.351810 0.172160 0.238400 0.031140 
0.409410 16.244350 -2.443960 -1.537376 24.017657 9.607859 -15.092346 12.904357 3.484041 7.856964 -3.257931 -26.413597 -8.026782 5.077364 9.991166 -0.373635 3.522003 3.507113 -0.191100 -0.524330 -0.149780 18.273012 -11.263030 2.200378 -8.887787 1.294768 -13.928657 -0.498298 -3.406887 13.323140 0.188428 -3.164146 3.330979 -0.221340 0.680200 0.173040 -4.224285 -1.056499 -7.044696 9.710212 1.108661 4.459233 1.391964 1.783546 -5.425967 -3.006667 -9.852705 -7.802683 -18.160068 12.145809 24.251845 0.189830 4.678680 4.649190 1.867347 14.602320 3.023510 -73.211329 4.905911 -4.626994 -24.697343 -21.075002 2.431989 -3.924015 3.014870 0.159930 0.324740 -0.362750 0.117430 3.917249 -5.024874 1.912456 64.028274 4.135759 -3.491787 25.233222 23.545927 3.552889 2.486468 -1.509967 -0.332360 0.158990 0.214490 0.029500 
0.404000 16.247420 -2.441820 -1.403139 23.906046 9.280805 -15.079998 12.921792 3.436182 7.861189 -3.157768 -26.011317 -7.808330 5.066754 10.166144 -0.393214 3.499637 3.499545 -0.143480 -0.470110 -0.098010 18.284115 -11.285956 2.201055 -9.037842 1.233176 -13.506492 -0.555958 -3.415837 13.078499 0.153295 -3.172596 3.327254 -0.195700 0.634350 0.174440 -4.262120 -1.028564 -7.023651 10.214378 1.223496 4.483142 0.194488 1.818189 -4.686235 -2.315603 -9.877439 -7.618635 -18.479913 12.536119 25.655910 -0.384070 5.462720 3.976050 0.638062 14.618891 2.451526 -72.283108 3.782844 -4.217337 -22.590884 -21.357716 2.154273 -3.928288 2.977656 0.191190 0.305580 -0.323750 0.116070 3.650240 -5.022746 1.958087 64.969738 5.027382 -2.982276 26.047163 24.552960 3.968060 2.464149 -1.524187 -0.321780 0.158300 0.187060 0.008360 
0.401350 16.248160 -2.441400 -1.492692 23.811826 8.997761 -15.047527 12.888908 3.399070 8.034763 -3.068113 -25.815859 -7.718389 5.098254 10.413843 -0.412599 3.495109 3.484080 -0.105940 -0.426990 -0.048970 18.315737 -11.335584 2.220845 -8.962511 1.193411 -13.160353 -0.645793 -3.409912 12.767255 0.122975 -3.183302 3.322245 -0.174360 0.591800 0.177230 -4.361513 -0.858679 -7.026063 11.177049 1.372514 4.462561 -1.364091 1.872612 -4.185102 -1.445194 -9.558112 -7.413731 -17.915510 12.767265 27.220856 -1.155050 6.490240 3.571540 -0.407599 14.591349 1.816203 -71.365742 2.679227 -3.714830 -20.432772 -21.480537 1.866043 -3.942453 2.941551 0.216820 0.294800 -0.290870 0.111280 2.760242 -5.184686 2.014486 66.794652 6.135735 -2.166111 26.518555 24.788231 4.159845 2.441630 -1.543925 -0.315490 0.151070 0.163120 -0.015830 
0.398670 16.248940 -2.442700 -1.701140 23.762387 8.712227 -15.008039 12.836494 3.372747 8.261888 -2.990640 -25.766881 -7.650171 5.148638 10.737454 -0.424769 3.490548 3.462869 -0.079810 -0.392430 0.002100 18.351654 -11.404031 2.252863 -8.762521 1.164077 -12.888749 -0.701758 -3.419855 12.544345 0.095778 -3.194843 3.311173 -0.160430 0.544440 0.183940 -4.482005 -0.618874 -7.051318 12.276584 1.565840 4.490147 -2.983444 1.969151 -3.830853 -0.413420 -8.965877 -7.232871 -16.675643 12.823456 28.977299 -2.234450 7.804130 3.257220 -1.421265 14.353273 1.189743 -70.455062 1.547085 -3.164730 -18.308598 -21.440596 1.572177 -3.965948 2.905330 0.234220 0.288510 -0.256150 0.095770 1.508415 -5.287047 2.119538 69.191118 7.421537 -1.171374 26.356094 24.482155 4.091851 2.424636 -1.559830 -0.305070 0.134470 0.143360 -0.041910 
0.396870 16.249020 -2.446500 -1.960635 23.760095 8.490942 -14.964001 12.772734 3.364935 8.482749 -2.946050 -25.860795 -7.611416 5.197685 11.086908 -0.433506 3.481279 3.438885 -0.051870 -0.358510 0.057770 18.387478 -11.484608 2.298571 -8.474324 1.153951 -12.722288 -0.744585 -3.429484 12.342898 0.065603 -3.197536 3.296631 -0.149950 0.490210 0.199550 -4.614978 -0.337321 -7.108486 13.458870 1.789505 4.654487 -4.641009 2.110504 -3.849458 0.722026 -8.218999 -7.069893 -15.020246 12.755519 30.816215 -3.414970 9.205630 2.828650 -2.540718 14.043831 0.527392 -69.368803 0.478415 -2.539368 -16.359890 -21.116345 1.292231 -3.990464 2.873557 0.253440 0.279940 -0.214710 0.078270 0.141653 -5.354585 2.268925 71.924262 8.671223 -0.055005 25.606374 23.658285 3.793429 2.410436 -1.572486 -0.288080 0.108210 0.123010 -0.069130 
0.396500 16.248330 -2.451900 -2.285503 23.741602 8.274217 -14.913702 12.694221 3.362822 8.720777 -2.904683 -25.961807 -7.573369 5.227710 11.346821 -0.434476 3.461151 3.419179 -0.032940 -0.327790 0.106330 18.426609 -11.584028 2.355794 -8.068129 1.146383 -12.619084 -0.858537 -3.416480 12.150604 0.041625 -3.198919 3.281178 -0.141600 0.441600 0.215700 -4.764181 0.008306 -7.182081 14.717336 2.052028 4.829471 -6.416879 2.304158 -3.917358 1.991219 -7.269037 -7.007731 -12.820847 12.573425 32.560501 -4.565750 10.682040 2.599410 -3.590345 13.363951 -0.016218 -68.345483 -0.538118 -2.031906 -14.322839 -20.755457 0.994617 -4.019894 2.847010 0.259890 0.278040 -0.177320 0.058660 -1.556568 -5.084387 2.568007 75.247518 9.962353 1.111470 24.179012 22.347951 3.222542 2.399532 -1.587347 -0.269130 0.078440 0.104540 -0.090830 
0.389540 16.246580 -2.457500 -2.217994 24.082948 7.866807 -14.889439 12.623297 3.348397 8.975146 -2.846641 -25.752819 -7.808696 5.340619 11.651369 -0.464115 3.522385 3.382955 -0.004950 -0.298500 0.164000 18.442292 -11.679262 2.378579 -8.219765 1.075915 -12.198763 -0.851523 -3.490368 12.043176 0.011724 -3.261663 3.248046 -0.118460 0.413260 0.234600 -4.844631 0.308689 -7.220391 15.143282 2.291075 4.971952 -7.558563 2.544200 -3.019382 3.101809 -6.166785 -6.991536 -10.404011 12.079202 33.988283 -5.789430 11.839930 2.003080 -5.136824 11.358774 -0.234020 -66.675760 -2.025278 -1.685742 -12.433798 -20.456330 0.646831 -4.058178 2.824500 0.276590 0.291440 -0.150990 0.044250 -2.248178 -3.749552 2.813942 76.946598 11.738327 2.172991 22.322666 20.790514 2.526173 2.374838 -1.590489 -0.269720 0.071940 0.092350 -0.122260 
0.381840 16.245340 -2.462740 -2.046176 24.425191 7.260079 -14.866858 12.548287 3.299115 9.067508 -2.762709 -25.281401 -7.975124 5.446325 12.031725 -0.490597 3.573786 3.343633 0.040350 -0.244020 0.230100 18.462971 -11.782316 2.389762 -8.489332 0.947798 -11.525058 -0.814025 -3.595405 11.966792 -0.028231 -3.362906 3.195128 -0.082230 0.372470 0.262050 -4.926002 0.630498 -7.215529 15.438106 2.605200 5.001039 -8.600805 2.908551 -1.188966 4.097872 -4.977864 -7.123177 -7.940589 11.248108 34.963652 -7.056180 12.621560 1.065630 -6.925443 8.236566 -0.065805 -64.206780 -3.796437 -1.483158 -11.496378 -20.305423 0.460349 -4.083601 2.841954 0.280740 0.304420 -0.119150 0.029380 -2.329435 -1.525460 3.126036 77.984450 13.697628 2.933961 20.344842 19.612235 1.862671 2.355611 -1.611371 -0.253410 0.053230 0.072250 -0.150100 
